# xmcd
#
# Track frame offsets: 
#        182
#        15462
#        26065
#        38065
#        50147
#        60192
#        72252
#        85270
#        97775
#        109087
#
# Disc length: 1598 seconds
#
# Revision: 2
# Processed by: cddbd v1.5.2PL0 Copyright (c) Steve Scherf et al.
# Submitted via: ExactAudioCopy v1.0b1
#
DISCID=74063c0a
DTITLE=Chuck Jackson - Greatest Hits
DYEAR=1996
DGENRE=Pop
TTITLE0=Any Day Now
TTITLE1=I Don't Want To Cry
TTITLE2=Tell Him I'm Not Home
TTITLE3=Beg Me
TTITLE4=If I Didn't Love You
TTITLE5=Since I Don't Have You
TTITLE6=Something You've Got [With Maxine Brown]
TTITLE7=I Keep Forgettin' (Every Time You're Near)
TTITLE8=I Need You
TTITLE9=Any Other Way
EXTD=
EXTT0=
EXTT1=
EXTT2=
EXTT3=
EXTT4=
EXTT5=
EXTT6=
EXTT7=
EXTT8=
EXTT9=
PLAYORDER=
